<svg width="107" height="32" viewBox="0 0 107 32" fill="none" xmlns="http://www.w3.org/2000/svg">
  <path d="M38.7685 12.0909V14.0795H32.4972V12.0909H38.7685ZM34.0455 9.47727H36.6165V19.7188C36.6165 20.0644 36.6686 20.3295 36.7727 20.5142C36.8816 20.6941 37.0237 20.8172 37.1989 20.8835C37.3741 20.9498 37.5682 20.983 37.7812 20.983C37.9422 20.983 38.089 20.9711 38.2216 20.9474C38.3589 20.9238 38.4631 20.9025 38.5341 20.8835L38.9673 22.8935C38.83 22.9408 38.6335 22.9929 38.3778 23.0497C38.1269 23.1065 37.8191 23.1397 37.4545 23.1491C36.8106 23.1681 36.2306 23.071 35.7145 22.858C35.1984 22.6402 34.7888 22.304 34.4858 21.8494C34.1875 21.3949 34.0407 20.8267 34.0455 20.1449V9.47727ZM40.9187 23V12.0909H43.4897V23H40.9187ZM42.2113 10.5426C41.8041 10.5426 41.4537 10.4077 41.1602 10.1378C40.8666 9.86316 40.7198 9.53409 40.7198 9.15057C40.7198 8.76231 40.8666 8.43324 41.1602 8.16335C41.4537 7.88873 41.8041 7.75142 42.2113 7.75142C42.6232 7.75142 42.9736 7.88873 43.2624 8.16335C43.556 8.43324 43.7028 8.76231 43.7028 9.15057C43.7028 9.53409 43.556 9.86316 43.2624 10.1378C42.9736 10.4077 42.6232 10.5426 42.2113 10.5426ZM48.7045 16.608V23H46.1335V12.0909H48.5909V13.9446H48.7188C48.9697 13.3338 49.3698 12.8485 49.919 12.4886C50.473 12.1288 51.1572 11.9489 51.9716 11.9489C52.7244 11.9489 53.3802 12.1098 53.9389 12.4318C54.5024 12.7538 54.938 13.2202 55.2457 13.831C55.5582 14.4418 55.7121 15.1828 55.7074 16.054V23H53.1364V16.4517C53.1364 15.7225 52.947 15.152 52.5682 14.7401C52.1941 14.3281 51.6757 14.1222 51.0128 14.1222C50.563 14.1222 50.1629 14.2216 49.8125 14.4205C49.4669 14.6146 49.1946 14.8963 48.9957 15.2656C48.8016 15.6349 48.7045 16.0824 48.7045 16.608ZM59.5284 27.0909C59.178 27.0909 58.8537 27.0625 58.5554 27.0057C58.2618 26.9536 58.0275 26.892 57.8523 26.821L58.4489 24.8182C58.8229 24.9271 59.1567 24.9792 59.4503 24.9744C59.7438 24.9697 60.0019 24.8774 60.2244 24.6974C60.4517 24.5223 60.6435 24.2287 60.7997 23.8168L61.0199 23.2273L57.0639 12.0909H59.7912L62.3054 20.3295H62.419L64.9403 12.0909H67.6747L63.3068 24.321C63.1032 24.8987 62.8333 25.3935 62.4972 25.8054C62.161 26.2221 61.7491 26.5393 61.2614 26.7571C60.7784 26.9796 60.2008 27.0909 59.5284 27.0909ZM69.5675 23V8.45455H72.1385V13.8949H72.245C72.3776 13.6297 72.5646 13.348 72.8061 13.0497C73.0476 12.7467 73.3743 12.4886 73.7862 12.2756C74.1982 12.0578 74.7237 11.9489 75.3629 11.9489C76.2057 11.9489 76.9657 12.1643 77.6428 12.5952C78.3246 13.0213 78.8643 13.6534 79.2621 14.4915C79.6645 15.3248 79.8658 16.3475 79.8658 17.5597C79.8658 18.7576 79.6693 19.7756 79.2763 20.6136C78.8833 21.4517 78.3482 22.0909 77.6712 22.5312C76.9941 22.9716 76.227 23.1918 75.37 23.1918C74.745 23.1918 74.2266 23.0876 73.8146 22.8793C73.4027 22.6709 73.0713 22.42 72.8203 22.1264C72.5741 21.8281 72.3823 21.5464 72.245 21.2812H72.0959V23H69.5675ZM72.0888 17.5455C72.0888 18.2509 72.1882 18.8688 72.3871 19.3991C72.5907 19.9295 72.8819 20.3437 73.2607 20.642C73.6442 20.9356 74.1082 21.0824 74.6527 21.0824C75.2209 21.0824 75.6967 20.9309 76.0803 20.6278C76.4638 20.3201 76.7526 19.901 76.9467 19.3707C77.1456 18.8357 77.245 18.2273 77.245 17.5455C77.245 16.8684 77.148 16.267 76.9538 15.7415C76.7597 15.2159 76.4709 14.804 76.0874 14.5057C75.7038 14.2074 75.2256 14.0582 74.6527 14.0582C74.1035 14.0582 73.6371 14.2027 73.2536 14.4915C72.87 14.7803 72.5788 15.1851 72.38 15.706C72.1858 16.2268 72.0888 16.84 72.0888 17.5455ZM82.0515 23V12.0909H84.6225V23H82.0515ZM83.3441 10.5426C82.9369 10.5426 82.5865 10.4077 82.293 10.1378C81.9994 9.86316 81.8526 9.53409 81.8526 9.15057C81.8526 8.76231 81.9994 8.43324 82.293 8.16335C82.5865 7.88873 82.9369 7.75142 83.3441 7.75142C83.756 7.75142 84.1064 7.88873 84.3952 8.16335C84.6888 8.43324 84.8356 8.76231 84.8356 9.15057C84.8356 9.53409 84.6888 9.86316 84.3952 10.1378C84.1064 10.4077 83.756 10.5426 83.3441 10.5426ZM87.2663 23V12.0909H89.7592V13.9091H89.8729C90.0717 13.2794 90.4126 12.794 90.8956 12.4531C91.3833 12.1075 91.9396 11.9347 92.5646 11.9347C92.7067 11.9347 92.8653 11.9418 93.0405 11.956C93.2204 11.9654 93.3696 11.982 93.4879 12.0057V14.3707C93.379 14.3329 93.2062 14.2997 92.9695 14.2713C92.7375 14.2382 92.5125 14.2216 92.2947 14.2216C91.826 14.2216 91.4046 14.3234 91.0305 14.527C90.6612 14.7259 90.37 15.0028 90.157 15.358C89.9439 15.7131 89.8374 16.1226 89.8374 16.5866V23H87.2663ZM98.7951 23.1918C97.9381 23.1918 97.171 22.9716 96.494 22.5312C95.8169 22.0909 95.2818 21.4517 94.8888 20.6136C94.4959 19.7756 94.2994 18.7576 94.2994 17.5597C94.2994 16.3475 94.4982 15.3248 94.896 14.4915C95.2984 13.6534 95.8406 13.0213 96.5224 12.5952C97.2042 12.1643 97.9641 11.9489 98.8022 11.9489C99.4414 11.9489 99.967 12.0578 100.379 12.2756C100.791 12.4886 101.118 12.7467 101.359 13.0497C101.6 13.348 101.788 13.6297 101.92 13.8949H102.027V8.45455H104.605V23H102.076V21.2812H101.92C101.788 21.5464 101.596 21.8281 101.345 22.1264C101.094 22.42 100.762 22.6709 100.35 22.8793C99.9386 23.0876 99.4201 23.1918 98.7951 23.1918ZM99.5124 21.0824C100.057 21.0824 100.521 20.9356 100.904 20.642C101.288 20.3437 101.579 19.9295 101.778 19.3991C101.977 18.8688 102.076 18.2509 102.076 17.5455C102.076 16.84 101.977 16.2268 101.778 15.706C101.584 15.1851 101.295 14.7803 100.912 14.4915C100.533 14.2027 100.066 14.0582 99.5124 14.0582C98.9395 14.0582 98.4613 14.2074 98.0778 14.5057C97.6942 14.804 97.4054 15.2159 97.2113 15.7415C97.0172 16.267 96.9201 16.8684 96.9201 17.5455C96.9201 18.2273 97.0172 18.8357 97.2113 19.3707C97.4102 19.901 97.7013 20.3201 98.0849 20.6278C98.4731 20.9309 98.949 21.0824 99.5124 21.0824Z" fill="currentColor"/>
  <path opacity="0.6" d="M23.9995 6.05496L16.5073 4L13.8711 9.89089L23.9995 6.05496Z" fill="currentColor"/>
  <path opacity="0.6" d="M16.9545 20.517L10.126 17.7455L5.94531 28L16.9545 20.517Z" fill="currentColor"/>
  <path d="M0.000401075 14.5563L16.8357 20.5817L19.5967 7.70898L0.000401075 14.5563Z" fill="currentColor"/>
</svg>
